<?xml version="1.0" standalone="no"?><!DOCTYPE svg PUBLIC "-//W3C//DTD SVG 1.1//EN" "http://www.w3.org/Graphics/SVG/1.1/DTD/svg11.dtd"><svg t="1667007708306" class="icon" viewBox="0 0 1024 1024" version="1.1" xmlns="http://www.w3.org/2000/svg" p-id="2581" xmlns:xlink="http://www.w3.org/1999/xlink" width="200" height="200"><path d="M851.42 851.42c-187.44 187.44-491.4 187.44-678.84 0-187.44-187.44-187.44-491.4 0-678.84 187.44-187.44 491.4-187.44 678.84 0 187.44 187.44 187.44 491.4 0 678.84zM512 77C271.76 77 77 271.76 77 512s194.76 435 435 435 435-194.76 435-435S752.24 77 512 77z m196.44 641.94c-14.82 14.76-38.76 14.76-53.58-0.06L511.82 575.84 368.96 718.7c-14.76 14.82-38.76 14.82-53.52 0.06-14.82-14.76-14.76-38.76 0-53.58L458.3 522.32 315.86 379.88c-14.82-14.82-14.82-38.82-0.06-53.58 14.82-14.76 38.76-14.76 53.58 0.06L511.82 468.8 654.5 326.18c14.76-14.82 38.76-14.82 53.52-0.06 14.76 14.82 14.76 38.76 0 53.58L565.34 522.32l143.04 143.04c14.82 14.82 14.82 38.76 0.06 53.58z" fill="#ffffff" p-id="2582"></path></svg>